<?xml version="1.0" standalone="no"?>
<!DOCTYPE svg PUBLIC "-//W3C//DTD SVG 20010904//EN"
 "http://www.w3.org/TR/2001/REC-SVG-20010904/DTD/svg10.dtd">
<svg version="1.0" xmlns="http://www.w3.org/2000/svg"
 width="260.000000pt" height="260.000000pt" viewBox="0 0 260.000000 260.000000"
 preserveAspectRatio="xMidYMid meet">
<metadata>
Created by potrace 1.11, written by Peter Selinger 2001-2013
</metadata>
<g transform="translate(0.000000,260.000000) scale(0.100000,-0.100000)"
fill="#000000" stroke="none">
<path d="M1234 2449 l-61 -121 60 -124 c34 -68 64 -124 67 -124 3 0 33 56 67
124 l61 125 -59 113 c-32 62 -59 116 -59 120 0 27 -23 -7 -76 -113z"/>
<path d="M1153 2215 c3 -22 15 -89 26 -150 22 -118 49 -273 57 -318 2 -15 11
-59 19 -99 9 -39 14 -73 12 -75 -5 -4 -64 67 -90 107 -15 24 -15 34 -2 125 8
55 17 106 20 113 3 7 1 11 -4 8 -5 -3 -22 -42 -37 -86 -16 -44 -32 -80 -35
-80 -6 0 -142 171 -256 323 -29 39 -53 66 -53 61 0 -5 41 -108 90 -228 50
-121 90 -224 90 -228 0 -5 -10 -6 -22 -3 -13 2 -41 7 -62 10 -21 3 -50 8 -62
11 -15 4 -24 2 -24 -5 0 -6 6 -11 13 -11 18 0 170 -61 183 -74 10 -10 64 -138
64 -151 0 -3 -62 47 -137 112 -76 64 -136 122 -135 127 2 6 0 8 -4 4 -7 -8
-46 23 -181 140 -40 34 -73 61 -73 58 0 -3 34 -62 75 -131 41 -70 75 -129 75
-131 0 -3 -62 -4 -137 -3 -161 1 -177 0 -143 -11 14 -4 115 -40 225 -80 110
-39 246 -88 302 -108 56 -20 101 -37 100 -39 -4 -3 -52 -11 -117 -18 l-55 -6
-85 70 c-47 38 -86 68 -88 66 -2 -2 21 -34 52 -71 37 -47 51 -71 43 -76 -7 -3
-42 -10 -77 -13 -36 -4 -67 -8 -70 -10 -3 -1 -32 -6 -65 -9 -33 -4 -71 -9 -85
-11 -14 -2 -45 -7 -70 -10 -65 -9 -104 -16 -108 -19 -1 -2 23 -6 55 -10 32 -3
72 -9 88 -11 17 -3 44 -7 60 -10 17 -2 53 -7 80 -10 28 -3 57 -8 65 -10 8 -2
42 -7 75 -11 33 -3 62 -8 64 -10 2 -2 -22 -35 -53 -74 -31 -38 -55 -70 -52
-70 3 0 44 31 91 69 86 68 87 68 131 60 24 -5 60 -9 80 -11 32 -2 62 -18 34
-18 -7 0 -82 -25 -168 -56 -87 -31 -161 -57 -167 -58 -5 -2 -21 -8 -35 -13
-14 -6 -80 -30 -148 -54 l-123 -44 151 -3 c82 -1 150 -4 150 -6 0 -3 -77 -133
-132 -223 -20 -34 -19 -42 4 -20 7 7 69 60 137 117 69 58 182 153 253 213
l128 107 -26 -62 c-14 -35 -29 -72 -34 -83 -5 -15 -39 -33 -106 -60 -55 -21
-103 -42 -108 -47 -10 -7 -6 -7 103 12 34 6 65 9 68 7 2 -3 -38 -110 -90 -237
-53 -128 -89 -226 -82 -219 7 8 79 99 159 202 166 214 142 205 192 67 25 -70
32 -52 14 37 -24 126 -24 128 32 203 29 38 53 68 55 67 2 -2 -15 -101 -41
-242 -3 -16 -10 -55 -16 -85 -6 -30 -12 -66 -15 -80 -3 -14 -14 -76 -25 -139
-12 -63 -23 -118 -26 -123 -3 -4 -2 -8 3 -8 4 1 40 57 78 125 39 69 72 125 75
125 3 0 37 -56 75 -125 39 -68 74 -125 78 -125 5 0 5 4 2 10 -3 5 -8 22 -10
37 -2 16 -6 37 -8 48 -3 11 -8 40 -12 65 -10 63 -13 79 -19 98 -3 9 -8 37 -11
62 -3 25 -10 65 -15 90 -16 72 -49 264 -47 267 2 1 26 -29 55 -67 l52 -70 -15
-100 c-15 -100 -19 -150 -8 -120 2 8 13 38 23 65 11 28 24 63 30 78 10 28 12
26 162 -167 83 -108 153 -194 155 -193 1 2 -36 98 -83 213 -112 272 -107 248
-52 240 72 -11 102 -16 115 -21 7 -2 15 0 18 5 3 4 -9 12 -27 15 -18 4 -37 11
-43 15 -5 3 -38 17 -72 30 -35 12 -63 23 -63 24 0 1 -16 39 -35 85 l-35 83 57
-49 c32 -26 69 -58 83 -69 21 -18 130 -111 220 -187 14 -12 52 -44 85 -72 33
-27 64 -55 68 -62 4 -7 12 -13 17 -13 5 0 -22 53 -60 118 -38 65 -70 124 -72
132 -2 11 24 13 140 11 100 -2 142 1 137 8 -3 6 -11 11 -17 11 -6 0 -72 22
-147 49 -75 27 -208 75 -296 107 -88 31 -164 60 -168 64 -4 4 7 7 25 8 18 1
57 6 86 11 l54 8 81 -66 c115 -94 120 -95 49 -10 -34 42 -62 78 -62 81 0 2 6
5 13 5 6 1 30 4 52 7 59 10 105 16 150 21 22 3 51 7 65 10 14 3 41 7 60 9 168
20 175 22 99 32 -24 3 -69 9 -99 14 -30 5 -80 12 -110 15 -30 3 -62 8 -70 10
-18 5 -118 18 -142 19 -10 0 -18 3 -18 6 0 3 25 36 55 73 30 36 55 69 55 72 0
3 -40 -26 -90 -65 l-89 -71 -63 7 c-35 4 -70 8 -78 10 -8 1 -19 3 -25 4 -14 2
168 69 563 207 39 14 72 29 72 32 0 3 -65 5 -145 3 -80 -2 -145 -1 -145 2 0 2
33 61 74 130 41 69 72 126 70 126 -3 0 -81 -64 -173 -142 -92 -79 -192 -163
-221 -188 -30 -25 -71 -60 -91 -77 -36 -33 -60 -44 -42 -20 5 6 20 39 33 72
13 33 28 65 34 71 6 6 54 28 106 48 106 42 122 52 70 42 -19 -3 -44 -8 -55
-10 -11 -2 -37 -6 -57 -10 -21 -4 -38 -4 -38 -1 0 8 158 400 177 440 l14 30
-28 -31 c-15 -17 -86 -106 -157 -197 -72 -92 -132 -167 -136 -167 -3 0 -19 38
-35 84 -16 47 -31 83 -34 81 -2 -3 1 -37 7 -77 24 -157 27 -139 -29 -213 -28
-36 -52 -65 -54 -63 -2 2 3 37 11 78 8 41 17 91 20 110 3 19 15 82 25 140 11
58 22 122 25 143 3 21 14 77 24 125 21 100 20 99 -70 -61 -36 -64 -67 -117
-70 -117 -3 0 -23 32 -45 72 -22 40 -55 99 -74 132 l-33 61 5 -40z m131 -734
c5 -28 13 -51 17 -51 5 0 11 23 15 50 6 48 10 52 70 95 61 44 81 54 70 36 -4
-5 -3 -16 0 -25 5 -12 11 -13 24 -6 28 15 29 13 24 -32 -11 -105 -14 -112 -57
-150 -46 -41 -40 -47 23 -22 40 16 43 16 108 -11 37 -16 69 -30 71 -32 2 -1
-4 -12 -14 -23 -16 -18 -16 -20 -1 -26 27 -10 18 -24 -31 -45 -87 -38 -87 -38
-141 -19 -29 10 -52 15 -52 11 0 -4 18 -22 39 -39 35 -28 40 -38 46 -89 4 -32
9 -66 12 -77 4 -16 1 -18 -20 -14 -21 4 -27 0 -32 -20 -6 -24 -6 -24 -28 -5
-12 10 -39 30 -60 44 -36 23 -57 64 -57 112 0 37 -20 14 -26 -30 -6 -45 -11
-51 -70 -96 l-64 -47 -6 25 c-7 29 -8 29 -36 14 -18 -10 -20 -8 -14 18 3 15 8
51 11 78 4 41 12 56 41 84 28 25 38 30 44 20 6 -9 12 -6 21 14 14 30 30 34 49
12 7 -8 18 -15 26 -15 10 0 8 -9 -7 -35 -12 -19 -23 -35 -25 -35 -3 0 -2 16 2
35 7 39 3 42 -30 20 -13 -9 -28 -15 -32 -13 -8 2 -64 -47 -64 -57 0 -2 8 -1
18 2 12 3 22 -4 30 -22 10 -21 15 -24 30 -16 13 7 20 5 29 -12 10 -18 12 -19
13 -5 0 27 32 88 46 88 16 0 57 -66 50 -79 -4 -5 -2 -12 4 -16 5 -3 10 1 10
11 0 12 6 15 26 11 20 -3 28 1 36 19 7 14 20 24 32 24 20 0 20 0 -2 16 -25 17
-55 70 -47 83 5 10 60 7 97 -5 20 -6 21 -5 9 9 -11 14 -10 19 3 32 20 20 20
23 0 42 -11 11 -12 19 -5 26 6 6 11 16 11 21 0 6 -5 5 -12 -2 -14 -14 -94 -16
-103 -2 -7 11 21 57 50 83 20 18 20 18 -1 12 -17 -4 -23 0 -28 21 -6 22 -11
25 -32 20 -17 -5 -26 -2 -30 9 -4 8 -10 15 -15 15 -4 0 -6 -7 -3 -15 4 -9 -6
-34 -21 -57 l-27 -41 -24 39 c-13 21 -22 44 -19 51 2 7 0 15 -4 18 -5 3 -12
-2 -15 -11 -4 -11 -13 -14 -30 -10 -20 5 -25 1 -30 -20 -4 -16 -12 -24 -20
-21 -26 10 -23 -4 5 -34 16 -17 29 -36 29 -41 0 -10 -79 49 -81 60 0 4 -2 27
-5 52 -2 25 -6 58 -9 74 -4 24 -2 27 13 21 29 -11 36 -10 38 5 0 8 2 19 2 23
1 5 30 -11 65 -36 58 -41 63 -48 71 -96z m-72 -16 c0 -5 -5 -11 -11 -13 -6 -2
-11 4 -11 13 0 9 5 15 11 13 6 -2 11 -8 11 -13z m198 -1 c0 -9 -5 -14 -12 -12
-18 6 -21 28 -4 28 9 0 16 -7 16 -16z m-67 -66 l-5 -31 26 16 c35 24 39 21 21
-13 -18 -34 -26 -36 -60 -14 -23 15 -27 15 -51 -1 -32 -20 -44 -16 -67 24
l-18 31 36 -20 36 -20 -4 30 c-6 36 9 40 25 5 15 -33 23 -32 38 5 15 37 30 30
23 -12z m-211 -21 c54 -19 57 -27 12 -27 -22 0 -45 5 -52 12 -7 7 -12 8 -12 2
0 -5 5 -15 10 -20 8 -8 6 -15 -5 -24 -19 -16 -19 -27 0 -47 13 -12 13 -18 3
-31 -11 -13 -10 -14 11 -7 40 12 91 13 98 1 3 -6 3 -8 -1 -4 -4 3 -30 -2 -59
-12 -54 -19 -57 -19 -142 20 -48 22 -55 34 -27 45 15 6 15 8 -5 25 l-22 18 67
30 c78 36 76 36 124 19z m93 -46 c6 -1 9 -16 7 -36 -4 -34 -6 -35 -46 -34
l-41 1 35 15 c32 14 33 16 17 27 -58 35 -57 36 28 27z m219 -2 c-3 -5 -11 -9
-18 -9 -8 0 -19 -6 -25 -14 -9 -11 -4 -17 21 -29 l33 -17 -42 0 c-24 0 -43 -3
-43 -6 0 -4 9 -22 21 -41 l21 -33 -38 22 -37 22 6 -37 c7 -44 -6 -49 -23 -7
-11 28 -10 31 20 56 26 23 31 33 28 60 -2 19 0 35 4 36 21 7 77 4 72 -3z m56
-43 c-14 -14 -22 -2 -14 18 5 14 9 15 15 4 4 -7 4 -17 -1 -22z m-382 12 c-6
-18 -28 -21 -28 -4 0 9 7 16 16 16 9 0 14 -5 12 -12z m94 -173 c0 -5 -5 -11
-11 -13 -6 -2 -11 4 -11 13 0 9 5 15 11 13 6 -2 11 -8 11 -13z m198 0 c0 -8
-4 -15 -9 -15 -13 0 -22 16 -14 24 11 11 23 6 23 -9z"/>
<path d="M200 1933 c0 -4 32 -57 71 -120 l71 -113 42 -1 c22 -1 64 -3 91 -5
28 -2 74 -5 102 -8 37 -2 51 0 46 8 -17 30 -148 222 -155 226 -4 3 -57 7 -118
8 -61 2 -120 5 -130 7 -11 2 -20 1 -20 -2z"/>
<path d="M2379 1936 c-2 -2 -58 -7 -123 -10 -111 -7 -156 -16 -156 -34 0 -4
-29 -51 -64 -104 -35 -54 -62 -99 -59 -101 3 -4 164 0 238 6 26 3 40 17 108
117 42 63 77 118 77 122 0 8 -13 11 -21 4z"/>
<path d="M517 903 c-2 -1 -126 -11 -163 -12 -10 -1 -154 -213 -154 -227 0 -3
48 -3 108 0 59 2 119 5 134 5 24 1 39 18 108 121 l80 120 -56 -3 c-30 -1 -56
-3 -57 -4z"/>
<path d="M1993 874 c12 -19 27 -43 32 -52 16 -27 87 -137 91 -141 2 -3 21 -6
42 -7 162 -10 242 -14 242 -10 0 4 -105 163 -154 233 -1 1 -63 4 -138 7 l-137
6 22 -36z"/>
<path d="M1234 397 l-62 -121 61 -123 c34 -68 64 -123 67 -123 3 0 33 55 66
123 l62 122 -59 117 c-32 64 -62 119 -66 121 -4 3 -36 -50 -69 -116z"/>
</g>
</svg>
